<?xml version="1.0" encoding="UTF-8"?> <svg xmlns="http://www.w3.org/2000/svg" xmlns:xlink="http://www.w3.org/1999/xlink" width="2268" height="1474"><defs><clipPath id="clip0"><rect x="0" y="0" width="2268" height="1474"></rect></clipPath><clipPath id="clip1"><rect x="5" y="53" width="2004" height="1343"></rect></clipPath><clipPath id="clip2"><rect x="137" y="82" width="1858" height="1286"></rect></clipPath><clipPath id="clip3"><rect x="137" y="82" width="1858" height="1286"></rect></clipPath><clipPath id="clip4"><rect x="137" y="82" width="1858" height="1286"></rect></clipPath><clipPath id="clip5"><rect x="137" y="82" width="1858" height="1286"></rect></clipPath><clipPath id="clip6"><rect x="137" y="82" width="1858" height="1286"></rect></clipPath><clipPath id="clip7"><rect x="137" y="82" width="1858" height="1286"></rect></clipPath><clipPath id="clip8"><rect x="137" y="82" width="1858" height="1286"></rect></clipPath><clipPath id="clip9"><rect x="137" y="82" width="1858" height="1286"></rect></clipPath><clipPath id="clip10"><rect x="5" y="53" width="2004" height="1343"></rect></clipPath><clipPath id="clip11"><rect x="5" y="53" width="2004" height="1343"></rect></clipPath><clipPath id="clip12"><rect x="5" y="53" width="2004" height="1343"></rect></clipPath><clipPath id="clip13"><rect x="5" y="53" width="2004" height="1343"></rect></clipPath><clipPath id="clip14"><rect x="5" y="53" width="2004" height="1343"></rect></clipPath><clipPath id="clip15"><rect x="5" y="53" width="2004" height="1343"></rect></clipPath><clipPath id="clip16"><rect x="5" y="53" width="2004" height="1343"></rect></clipPath><clipPath id="clip17"><rect x="5" y="53" width="2004" height="1343"></rect></clipPath></defs><g clip-path="url(#clip0)"><rect x="0" y="0" width="2268" height="1473.89" fill="#FFFFFF"></rect><g clip-path="url(#clip1)"><path d="M137.5 1368.4 1994.5 1368.4M137.5 1184.38 1994.5 1184.38M137.5 1000.39 1994.5 1000.39M137.5 816.414 1994.5 816.414M137.5 633.433 1994.5 633.433M137.5 449.453 1994.5 449.453M137.5 265.472 1994.5 265.472M137.5 82.494 1994.5 82.494" stroke="#D9D9D9" stroke-width="1.00007" stroke-linejoin="round" stroke-miterlimit="10" fill="none"></path></g><g clip-path="url(#clip2)"><path d="M146.5 1321.4 164.495 1320.36 181.494 1320.36 199.494 1319.36 216.493 1319.36 234.493 1318.36 251.492 1317.36 269.492 1316.36 286.491 1314.36 304.49 1312.36 321.49 1307.36 339.489 1302.36 356.489 1296.36 374.488 1290.36 391.488 1286.36 409.487 1281.37 426.487 1277.37 444.486 1272.37 461.485 1267.37 479.485 1263.37 496.484 1258.37 514.484 1255.37 531.483 1250.37 549.483 1248.37 567.482 1243.37 584.482 1240.37 602.481 1235.37 619.48 1235.37 637.48 1231.37 654.479 1230.37 672.479 1227.37 689.478 1222.37 707.478 1222.37 724.477 1220.37 742.477 1214.37 759.476 1209.37 777.476 1216.37 794.475 1213.37 812.474 1207.37 829.474 1195.37 847.473 1187.38 864.473 1178.38 882.472 1177.38 899.472 1164.38 917.471 1160.38 934.471 1154.38 952.47 1157.38 969.469 1156.38 987.469 1162.38 1004.47 1165.38 1022.47 1166.38 1039.47 1173.38 1057.47 1182.38 1074.47 1189.38 1092.47 1198.37 1109.47 1194.37 1127.46 1196.37 1144.46 1197.37 1162.46 1192.37 1180.46 1188.38 1197.46 1183.38 1215.46 1182.38 1232.46 1192.37 1250.46 1180.38 1267.46 1178.38 1285.46 1188.38 1302.46 1182.38 1320.46 1183.38 1337.46 1183.38 1355.46 1177.38 1372.46 1188.38 1390.46 1189.38 1407.46 1182.38 1425.46 1183.38 1442.45 1180.38 1460.45 1172.38 1477.45 1165.38 1495.45 1156.38 1512.45 1148.38 1530.45 1131.38 1547.45 1114.38 1565.45 1093.39 1582.45 1076.39 1600.45 1056.39 1617.45 1036.39 1635.45 1022.39 1652.45 1011.39 1670.45 1004.39 1687.45 995.396 1705.45 962.399 1722.45 928.402 1740.45 898.406 1757.44 873.408 1775.44 844.411 1793.44 812.415 1810.44 748.421 1828.44 697.427 1845.44 642.432 1863.44 600.437 1880.44 546.443 1898.44 513.446 1915.44 443.453 1933.44 393.459 1950.44 358.462 1968.44 311.467 1985.5 268.48" stroke="#BFBFBF" stroke-width="3.00022" stroke-linecap="round" stroke-linejoin="round" stroke-miterlimit="10" fill="none"></path></g><g clip-path="url(#clip3)"><path d="M146.5 1241.41 164.495 1240.37 181.494 1235.37 199.494 1234.37 216.493 1233.37 234.493 1232.37 251.492 1232.37 269.492 1232.37 286.491 1228.37 304.49 1228.37 321.49 1223.37 339.489 1222.37 356.489 1220.37 374.488 1220.37 391.488 1220.37 409.487 1215.37 426.487 1215.37 444.486 1214.37 461.485 1213.37 479.485 1211.37 496.484 1211.37 514.484 1211.37 531.483 1212.37 549.483 1214.37 567.482 1212.37 584.482 1210.37 602.481 1208.37 619.48 1208.37 637.48 1208.37 654.479 1208.37 672.479 1205.37 689.478 1205.37 707.478 1208.37 724.477 1209.37 742.477 1209.37 759.476 1209.37 777.476 1211.37 794.475 1211.37 812.474 1215.37 829.474 1214.37 847.473 1215.37 864.473 1215.37 882.472 1215.37 899.472 1212.37 917.471 1214.37 934.471 1209.37 952.47 1208.37 969.469 1206.37 987.469 1206.37 1004.47 1206.37 1022.47 1204.37 1039.47 1203.37 1057.47 1209.37 1074.47 1209.37 1092.47 1211.37 1109.47 1211.37 1127.46 1211.37 1144.46 1216.37 1162.46 1215.37 1180.46 1214.37 1197.46 1216.37 1215.46 1216.37 1232.46 1216.37 1250.46 1216.37 1267.46 1215.37 1285.46 1217.37 1302.46 1217.37 1320.46 1212.37 1337.46 1211.37 1355.46 1211.37 1372.46 1211.37 1390.46 1201.37 1407.46 1194.37 1425.46 1182.38 1442.45 1170.38 1460.45 1156.38 1477.45 1156.38 1495.45 1156.38 1512.45 1114.38 1530.45 1098.38 1547.45 1065.39 1565.45 1035.39 1582.45 1001.39 1600.45 1001.39 1617.45 1001.39 1635.45 926.403 1652.45 905.405 1670.45 879.408 1687.45 846.411 1705.45 823.414 1722.45 823.414 1740.45 823.414 1757.44 1002.39 1775.44 1066.39 1793.44 796.416 1810.44 785.417 1828.44 884.407 1845.44 760.42 1863.44 760.42 1880.44 486.449 1898.44 486.449 1915.44 576.439 1933.44 691.427 1950.44 452.467 1968.44 575.44 1985.5 575.44" stroke="#BFBFBF" stroke-width="3.00022" stroke-linecap="round" stroke-linejoin="round" stroke-miterlimit="10" fill="none"></path></g><g clip-path="url(#clip4)"><path d="M146.5 1176.38 164.495 1188.38 181.494 1202.37 199.494 1207.37 216.493 1215.37 234.493 1217.37 251.492 1221.37 269.492 1220.37 286.491 1221.37 304.49 1220.37 321.49 1224.37 339.489 1229.37 356.489 1232.37 374.488 1232.37 391.488 1233.37 409.487 1231.37 426.487 1230.37 444.486 1226.37 461.485 1226.37 479.485 1230.37 496.484 1231.37 514.484 1229.37 531.483 1228.37 549.483 1227.37 567.482 1226.37 584.482 1226.37 602.481 1223.37 619.48 1222.37 637.48 1223.37 654.479 1225.37 672.479 1227.37 689.478 1227.37 707.478 1226.37 724.477 1228.37 742.477 1226.37 759.476 1226.37 777.476 1227.37 794.475 1226.37 812.474 1226.37 829.474 1230.37 847.473 1229.37 864.473 1233.37 882.472 1250.37 899.472 1237.37 917.471 1241.37 934.471 1245.37 952.47 1246.37 969.469 1251.37 987.469 1253.37 1004.47 1240.37 1022.47 1258.37 1039.47 1261.37 1057.47 1265.37 1074.47 1267.37 1092.47 1270.37 1109.47 1273.37 1127.46 1274.37 1144.46 1274.37 1162.46 1274.37 1180.46 1275.37 1197.46 1276.41 1215.46 1276.41 1232.46 1275.37 1250.46 1275.37 1267.46 1273.37 1285.46 1272.37 1302.46 1271.37 1320.46 1264.37 1337.46 1256.37 1355.46 1249.37 1372.46 1245.37 1390.46 1236.37 1407.46 1228.37 1425.46 1214.37 1442.45 1208.37 1460.45 1201.37 1477.45 1192.37 1495.45 1181.38 1512.45 1177.38 1530.45 1169.38 1547.45 1163.38 1565.45 1151.38 1582.45 1134.38 1600.45 1120.38 1617.45 1099.38 1635.45 1085.39 1652.45 1070.39 1670.45 1050.39 1687.45 1031.39 1705.45 1019.39 1722.45 1002.39 1740.45 987.396 1757.44 969.398 1775.44 954.4 1793.44 940.401 1810.44 921.403 1828.44 894.406 1845.44 863.409 1863.44 839.412 1880.44 807.415 1898.44 781.418 1915.44 753.421 1933.44 706.426 1950.44 666.43 1968.44 651.432 1985.5 647.452" stroke="#BFBFBF" stroke-width="3.00022" stroke-linecap="round" stroke-linejoin="round" stroke-miterlimit="10" fill="none"></path></g><g clip-path="url(#clip5)"><path d="M146.5 1344.4 164.495 1344.4 181.494 1343.36 199.494 1342.36 216.493 1341.36 234.493 1339.36 251.492 1338.36 269.492 1337.36 286.491 1335.36 304.49 1335.36 321.49 1332.36 339.489 1329.36 356.489 1325.36 374.488 1323.36 391.488 1320.36 409.487 1318.36 426.487 1314.36 444.486 1309.36 461.485 1305.36 479.485 1300.36 496.484 1296.36 514.484 1293.36 531.483 1290.36 549.483 1272.37 567.482 1266.37 584.482 1260.37 602.481 1271.37 619.48 1268.37 637.48 1267.37 654.479 1266.37 672.479 1262.37 689.478 1261.37 707.478 1257.37 724.477 1256.37 742.477 1255.37 759.476 1253.37 777.476 1253.37 794.475 1252.37 812.474 1266.37 829.474 1251.37 847.473 1250.37 864.473 1251.37 882.472 1253.37 899.472 1254.37 917.471 1269.37 934.471 1257.37 952.47 1276.37 969.469 1266.37 987.469 1267.37 1004.47 1269.37 1022.47 1271.37 1039.47 1274.37 1057.47 1277.37 1074.47 1279.37 1092.47 1280.37 1109.47 1282.37 1127.46 1282.37 1144.46 1283.37 1162.46 1283.37 1180.46 1281.37 1197.46 1279.37 1215.46 1279.37 1232.46 1279.37 1250.46 1279.37 1267.46 1280.37 1285.46 1279.37 1302.46 1280.37 1320.46 1279.37 1337.46 1279.37 1355.46 1279.37 1372.46 1277.37 1390.46 1277.37 1407.46 1276.37 1425.46 1275.37 1442.45 1275.37 1460.45 1272.37 1477.45 1269.37 1495.45 1268.37 1512.45 1266.37 1530.45 1243.37 1547.45 1233.37 1565.45 1223.37 1582.45 1218.37 1600.45 1225.37 1617.45 1221.37 1635.45 1216.37 1652.45 1202.37 1670.45 1187.38 1687.45 1201.37 1705.45 1166.38 1722.45 1145.38 1740.45 1161.38 1757.44 1158.38 1775.44 1159.38 1793.44 1151.38 1810.44 1104.38 1828.44 1110.38 1845.44 1100.38 1863.44 1079.39 1880.44 1060.39 1898.44 1043.39 1915.44 1017.39 1933.44 999.395 1950.44 982.397 1968.44 965.399 1985.5 955.43" stroke="#BFBFBF" stroke-width="3.00022" stroke-linecap="round" stroke-linejoin="round" stroke-miterlimit="10" fill="none"></path></g><g clip-path="url(#clip6)"><path d="M146.5 1069.39 164.495 1063.39 181.494 1068.39 199.494 1065.39 216.493 1063.39 234.493 1060.39 251.492 1056.39 269.492 1054.39 286.491 1057.39 304.49 1049.39 321.49 1042.39 339.489 1036.39 356.489 1032.39 374.488 1035.39 391.488 1033.39 409.487 1021.42 426.487 1029.39 444.486 1034.39 461.485 1042.39 479.485 1052.39 496.484 1055.39 514.484 1063.39 531.483 1074.39 549.483 1072.39 567.482 1085.39 584.482 1096.38 602.481 1139.38 619.48 1114.38 637.48 1121.38 654.479 1121.38 672.479 1172.38 689.478 1154.38 707.478 1165.38 724.477 1135.38 742.477 1179.38 759.476 1185.38 777.476 1194.37 794.475 1166.38 812.474 1219.37 829.474 1211.37 847.473 1222.37 864.473 1228.37 882.472 1233.37 899.472 1234.37 917.471 1234.37 934.471 1245.37 952.47 1253.37 969.469 1256.37 987.469 1260.37 1004.47 1264.37 1022.47 1266.37 1039.47 1277.37 1057.47 1264.37 1074.47 1278.37 1092.47 1279.37 1109.47 1285.36 1127.46 1287.36 1144.46 1287.36 1162.46 1290.36 1180.46 1291.36 1197.46 1295.36 1215.46 1298.36 1232.46 1298.36 1250.46 1301.36 1267.46 1301.36 1285.46 1303.36 1302.46 1297.36 1320.46 1297.36 1337.46 1298.36 1355.46 1299.36 1372.46 1298.36 1390.46 1299.36 1407.46 1298.36 1425.46 1313.4 1442.45 1305.36 1460.45 1302.36 1477.45 1302.36 1495.45 1302.36 1512.45 1302.36 1530.45 1302.36 1547.45 1294.36 1565.45 1301.36 1582.45 1300.36 1600.45 1297.36 1617.45 1295.36 1635.45 1294.36 1652.45 1293.36 1670.45 1291.36 1687.45 1291.36 1705.45 1291.36 1722.45 1290.36 1740.45 1287.36 1757.44 1286.36 1775.44 1295.36 1793.44 1289.36 1810.44 1282.37 1828.44 1278.37 1845.44 1273.37 1863.44 1268.37 1880.44 1267.37 1898.44 1247.37 1915.44 1245.37 1933.44 1238.37 1950.44 1248.37 1968.44 1238.37 1985.5 1231.37" stroke="#BFBFBF" stroke-width="3.00022" stroke-linecap="round" stroke-linejoin="round" stroke-miterlimit="10" fill="none"></path></g><g clip-path="url(#clip7)"><path d="M146.5 1285.36 164.495 1285.36 181.494 1284.37 199.494 1282.37 216.493 1280.37 234.493 1280.37 251.492 1279.37 269.492 1279.37 286.491 1276.37 304.49 1275.37 321.49 1274.37 339.489 1274.37 356.489 1272.37 374.488 1271.37 391.488 1271.37 409.487 1273.37 426.487 1273.37 444.486 1273.37 461.485 1273.37 479.485 1273.37 496.484 1273.37 514.484 1272.37 531.483 1271.37 549.483 1269.37 567.482 1268.37 584.482 1268.37 602.481 1267.37 619.48 1268.37 637.48 1268.37 654.479 1268.37 672.479 1269.37 689.478 1272.37 707.478 1273.37 724.477 1275.37 742.477 1277.37 759.476 1279.37 777.476 1280.37 794.475 1281.37 812.474 1283.37 829.474 1286.36 847.473 1288.36 864.473 1290.36 882.472 1291.36 899.472 1293.36 917.471 1294.36 934.471 1297.36 952.47 1298.36 969.469 1300.36 987.469 1301.36 1004.47 1303.36 1022.47 1304.36 1039.47 1305.36 1057.47 1307.36 1074.47 1310.36 1092.47 1311.36 1109.47 1313.36 1127.46 1315.36 1144.46 1316.36 1162.46 1317.36 1180.46 1319.36 1197.46 1319.36 1215.46 1320.36 1232.46 1320.36 1250.46 1321.36 1267.46 1321.36 1285.46 1322.36 1302.46 1322.36 1320.46 1324.36 1337.46 1325.36 1355.46 1326.36 1372.46 1328.36 1390.46 1328.36 1407.46 1328.36 1425.46 1329.36 1442.45 1330.4 1460.45 1330.4 1477.45 1330.4 1495.45 1329.36 1512.45 1329.36 1530.45 1329.36 1547.45 1327.36 1565.45 1324.36 1582.45 1322.36 1600.45 1320.36 1617.45 1317.36 1635.45 1315.36 1652.45 1312.36 1670.45 1310.36 1687.45 1308.36 1705.45 1304.36 1722.45 1302.36 1740.45 1301.36 1757.44 1300.36 1775.44 1302.36 1793.44 1301.36 1810.44 1300.36 1828.44 1296.36 1845.44 1292.36 1863.44 1290.36 1880.44 1286.36 1898.44 1279.37 1915.44 1272.37 1933.44 1266.37 1950.44 1262.37 1968.44 1258.37 1985.5 1255.41" stroke="#BFBFBF" stroke-width="3.00022" stroke-linecap="round" stroke-linejoin="round" stroke-miterlimit="10" fill="none"></path></g><g clip-path="url(#clip8)"><path d="M146.5 900.434 164.495 916.404 181.494 933.402 199.494 948.4 216.493 963.399 234.493 972.398 251.492 972.398 269.492 972.398 286.491 1018.39 304.49 1030.39 321.49 1044.39 339.489 1055.39 356.489 1072.39 374.488 1072.39 391.488 1072.39 409.487 1110.38 426.487 1114.38 444.486 1129.38 461.485 1143.38 479.485 1152.38 496.484 1152.38 514.484 1152.38 531.483 1157.38 549.483 1169.38 567.482 1172.38 584.482 1187.38 602.481 1195.37 619.48 1195.37 637.48 1195.37 654.479 1219.37 672.479 1225.37 689.478 1236.37 707.478 1230.37 724.477 1239.37 742.477 1239.37 759.476 1239.37 777.476 1256.37 794.475 1262.37 812.474 1266.37 829.474 1279.37 847.473 1284.37 864.473 1284.37 882.472 1284.37 899.472 1289.36 917.471 1295.36 934.471 1301.36 952.47 1302.36 969.469 1306.36 987.469 1306.36 1004.47 1306.36 1022.47 1311.36 1039.47 1313.36 1057.47 1315.36 1074.47 1318.36 1092.47 1320.36 1109.47 1320.36 1127.46 1320.36 1144.46 1323.36 1162.46 1323.36 1180.46 1324.36 1197.46 1324.36 1215.46 1327.36 1232.46 1327.36 1250.46 1327.36 1267.46 1329.36 1285.46 1330.36 1302.46 1332.36 1320.46 1334.36 1337.46 1333.36 1355.46 1333.36 1372.46 1333.36 1390.46 1334.36 1407.46 1339.36 1425.46 1337.36 1442.45 1337.36 1460.45 1337.36 1477.45 1337.36 1495.45 1337.36 1512.45 1335.36 1530.45 1330.36 1547.45 1331.36 1565.45 1331.36 1582.45 1330.36 1600.45 1330.36 1617.45 1330.36 1635.45 1330.36 1652.45 1330.36 1670.45 1330.36 1687.45 1329.36 1705.45 1330.36 1722.45 1330.36 1740.45 1330.36 1757.44 1343.4 1775.44 1332.36 1793.44 1333.36 1810.44 1329.36 1828.44 1327.36 1845.44 1327.36 1863.44 1327.36 1880.44 1309.36 1898.44 1325.36 1915.44 1313.36 1933.44 1311.36 1950.44 1307.36 1968.44 1307.36 1985.5 1307.36" stroke="#BFBFBF" stroke-width="3.00022" stroke-linecap="round" stroke-linejoin="round" stroke-miterlimit="10" fill="none"></path></g><g clip-path="url(#clip9)"><path d="M147 1013.89 163.995 1018.89 181.994 1021.92 198.994 1014.89 216.993 1016.89 233.993 1012.89 251.992 1006.89 268.992 1001.89 286.991 995.895 303.99 992.896 321.99 991.896 338.989 986.896 356.989 984.897 373.988 983.897 391.988 984.897 408.987 978.897 426.987 971.898 443.986 963.899 461.985 957.899 478.985 947.9 496.984 942.901 513.984 932.902 531.983 924.903 549.983 917.904 566.982 913.904 584.982 911.904 601.981 909.904 619.98 909.904 636.98 907.905 654.979 917.904 671.979 914.904 689.978 915.904 706.978 915.904 724.977 906.905 741.977 898.906 759.976 890.906 776.976 863.909 794.975 852.91 811.974 846.911 829.974 847.911 846.973 857.91 864.973 872.908 881.972 888.907 899.972 908.905 916.971 929.902 934.971 945.901 951.97 967.898 969.969 975.898 986.969 974.898 1004.97 973.898 1021.97 962.899 1039.97 954.9 1056.97 945.901 1074.97 928.902 1091.97 923.903 1109.96 922.903 1126.96 914.904 1144.96 911.904 1161.96 904.905 1179.96 901.905 1197.96 901.905 1214.96 903.905 1232.96 904.905 1249.96 911.904 1267.96 916.904 1284.96 920.903 1302.96 912.904 1319.96 904.905 1337.96 904.905 1354.96 885.907 1372.96 877.908 1389.96 866.909 1407.96 858.91 1424.96 853.91 1442.95 844.911 1459.95 825.913 1477.95 819.914 1494.95 798.916 1512.95 780.918 1529.95 768.919 1547.95 754.921 1564.95 742.922 1582.95 732.923 1599.95 729.946 1617.95 740.922 1634.95 764.92 1652.95 764.92 1669.95 773.919 1687.95 797.916 1704.95 808.915 1722.95 815.914 1739.95 818.914 1757.94 810.915 1774.94 830.913 1792.94 834.912 1810.94 840.912 1827.94 857.91 1845.94 878.908 1862.94 893.906 1880.94 908.905 1897.94 909.904 1915.94 912.904 1932.94 900.905 1950.94 890.906 1967.94 876.908 1986 864.909" stroke="#12436D" stroke-width="8.00059" stroke-linecap="round" stroke-linejoin="round" stroke-miterlimit="10" fill="none"></path></g><g clip-path="url(#clip10)"><text fill="#595959" font-family="Arial,Arial_MSFontService,sans-serif" font-weight="400" font-size="40" transform="matrix(1 0 0 0.999927 81.2586 1380)">0</text></g><g clip-path="url(#clip11)"><text fill="#595959" font-family="Arial,Arial_MSFontService,sans-serif" font-weight="400" font-size="40" transform="matrix(1 0 0 0.999927 36.7619 1197)">200</text></g><g clip-path="url(#clip12)"><text fill="#595959" font-family="Arial,Arial_MSFontService,sans-serif" font-weight="400" font-size="40" transform="matrix(1 0 0 0.999927 36.7619 1013)">400</text></g><g clip-path="url(#clip13)"><text fill="#595959" font-family="Arial,Arial_MSFontService,sans-serif" font-weight="400" font-size="40" transform="matrix(1 0 0 0.999927 36.7619 829)">600</text></g><g clip-path="url(#clip14)"><text fill="#595959" font-family="Arial,Arial_MSFontService,sans-serif" font-weight="400" font-size="40" transform="matrix(1 0 0 0.999927 36.7619 646)">800</text></g><g clip-path="url(#clip15)"><text fill="#595959" font-family="Arial,Arial_MSFontService,sans-serif" font-weight="400" font-size="40" transform="matrix(1 0 0 0.999927 14.5135 462)">1000</text></g><g clip-path="url(#clip16)"><text fill="#595959" font-family="Arial,Arial_MSFontService,sans-serif" font-weight="400" font-size="40" transform="matrix(1 0 0 0.999927 14.5135 278)">1200</text></g><g clip-path="url(#clip17)"><text fill="#595959" font-family="Arial,Arial_MSFontService,sans-serif" font-weight="400" font-size="40" transform="matrix(1 0 0 0.999927 14.5135 95)">1400</text></g><text font-family="Arial,Arial_MSFontService,sans-serif" font-weight="400" font-size="47" transform="matrix(1 0 0 0.999927 1999.72 872)">UK<tspan font-size="47" x="7.802" y="-596.044">Austria</tspan><tspan font-size="47" x="0.651245" y="-295.022">Belgium</tspan><tspan font-size="47" x="-0.768066" y="-214.016">Netherlands</tspan><tspan font-size="47" x="-5.23267" y="90.0066">Germany </tspan><tspan font-size="47" x="-3.7428" y="344.025">France</tspan><tspan font-size="47" x="-1.01331" y="391.029">Italy </tspan><tspan font-size="47" x="-1.70093" y="443.033">Spain</tspan><tspan fill="#595959" font-size="40" x="-1892.98" y="546.04">1 Aug</tspan><tspan fill="#595959" font-size="40" x="-1378.76" y="546.04">1 Sept</tspan><tspan fill="#595959" font-size="40" x="-874.447" y="542.04">1 Oct</tspan><tspan fill="#595959" font-size="40" x="-374.171" y="542.04">1 Nov</tspan><tspan fill="#595959" font-size="40" x="-116.581" y="544.04">14 Nov</tspan></text></g></svg> 