<?xml version="1.0" encoding="UTF-8" standalone="no"?>
<svg version="1.1" xmlns="http://www.w3.org/2000/svg" style="font-family: Arial; " width="800" height="450" viewBox="0 0 800 450"><title>Video use over time</title><defs><clipPath id="chart-clipPath-exact"><rect height="367" width="718"></rect></clipPath><clipPath id="chart-clipPath-buffer"><rect x="-10" y="-10" height="387" width="738"></rect></clipPath></defs><g class="scaler"><rect width="800" height="450" fill="rgb(27, 154, 170)" fill-opacity="1"></rect><g class="canvas" transform="translate(77,52)"><g class="grid"><g class="axis-grid y" transform="translate(0.5,0)"><line class="grid" x1="0.5" x2="717.5" y1="0" y2="0" style="stroke: #58b6c1; stroke-opacity: 1; stroke-width: 1px; " transform="translate(0,366)"></line><line class="grid" x1="0.5" x2="717.5" y1="0" y2="0" style="stroke: #58b6c1; stroke-opacity: 1; stroke-width: 1px; " transform="translate(0,329.4)"></line><line class="grid" x1="0.5" x2="717.5" y1="0" y2="0" style="stroke: #58b6c1; stroke-opacity: 1; stroke-width: 1px; " transform="translate(0,292.8)"></line><line class="grid" x1="0.5" x2="717.5" y1="0" y2="0" style="stroke: #58b6c1; stroke-opacity: 1; stroke-width: 1px; " transform="translate(0,256.2)"></line><line class="grid" x1="0.5" x2="717.5" y1="0" y2="0" style="stroke: #58b6c1; stroke-opacity: 1; stroke-width: 1px; " transform="translate(0,219.6)"></line><line class="grid" x1="0.5" x2="717.5" y1="0" y2="0" style="stroke: #58b6c1; stroke-opacity: 1; stroke-width: 1px; " transform="translate(0,183)"></line><line class="grid" x1="0.5" x2="717.5" y1="0" y2="0" style="stroke: #58b6c1; stroke-opacity: 1; stroke-width: 1px; " transform="translate(0,146.4)"></line><line class="grid" x1="0.5" x2="717.5" y1="0" y2="0" style="stroke: #58b6c1; stroke-opacity: 1; stroke-width: 1px; " transform="translate(0,109.80000000000001)"></line><line class="grid" x1="0.5" x2="717.5" y1="0" y2="0" style="stroke: #58b6c1; stroke-opacity: 1; stroke-width: 1px; " transform="translate(0,73.19999999999999)"></line><line class="grid" x1="0.5" x2="717.5" y1="0" y2="0" style="stroke: #58b6c1; stroke-opacity: 1; stroke-width: 1px; " transform="translate(0,36.599999999999966)"></line><line class="grid" x1="0.5" x2="717.5" y1="0" y2="0" style="stroke: #58b6c1; stroke-opacity: 1; stroke-width: 1px; " transform="translate(0,0)"></line></g><g class="axis-grid x" transform="translate(0,366.5)"></g><g class="axis-grid y2" transform="translate(718,0)"></g><g class="axis-grid x2" transform="translate(0,1)"></g></g><rect class="trigger-layer" height="440" width="764" opacity="0"></rect><g class="chart"><g class="series s0"><g class="bar"><rect fill="rgb(236, 247, 248)" opacity="1" x="18.487804878048784" width="69.95121951219514" y="142.74" height="223.26" clip-path="url(#chart-clipPath-exact)"></rect></g><g class="bar"><rect fill="rgb(236, 247, 248)" opacity="1" x="105.92682926829269" width="69.95121951219514" y="135.42" height="230.58" clip-path="url(#chart-clipPath-exact)"></rect></g><g class="bar"><rect fill="rgb(236, 247, 248)" opacity="1" x="193.36585365853662" width="69.95121951219514" y="69.53999999999996" height="296.46000000000004" clip-path="url(#chart-clipPath-exact)"></rect></g><g class="bar"><rect fill="rgb(236, 247, 248)" opacity="1" x="280.80487804878055" width="69.95121951219514" y="47.579999999999984" height="318.42" clip-path="url(#chart-clipPath-exact)"></rect></g><g class="bar"><rect fill="rgb(236, 247, 248)" opacity="1" x="368.24390243902445" width="69.95121951219514" y="54.900000000000034" height="311.09999999999997" clip-path="url(#chart-clipPath-exact)"></rect></g><g class="bar"><rect fill="rgb(236, 247, 248)" opacity="1" x="455.68292682926835" width="69.95121951219514" y="51.24000000000001" height="314.76" clip-path="url(#chart-clipPath-exact)"></rect></g><g class="bar"><rect fill="rgb(236, 247, 248)" opacity="1" x="543.1219512195123" width="69.95121951219514" y="51.24000000000001" height="314.76" clip-path="url(#chart-clipPath-exact)"></rect></g><g class="bar"><rect fill="rgb(236, 247, 248)" opacity="1" x="630.5609756097562" width="69.95121951219514" y="32.94" height="333.06" clip-path="url(#chart-clipPath-exact)"></rect></g><text class="data-label" font-size="18" fill="rgb(236, 247, 248)" fill-opacity="1" visibility="visible" text-anchor="middle" transform="translate(53.46341463414635,110.74000000000001)"><tspan x="0" y="0" dy="0.91em">61%</tspan></text><text class="data-label" font-size="18" fill="rgb(236, 247, 248)" fill-opacity="1" visibility="visible" text-anchor="middle" transform="translate(140.90243902439028,103.41999999999999)"><tspan x="0" y="0" dy="0.91em">63%</tspan></text><text class="data-label" font-size="18" fill="rgb(236, 247, 248)" fill-opacity="1" visibility="visible" text-anchor="middle" transform="translate(228.34146341463418,37.539999999999964)"><tspan x="0" y="0" dy="0.91em">81%</tspan></text><text class="data-label" font-size="18" fill="rgb(236, 247, 248)" fill-opacity="1" visibility="visible" text-anchor="middle" transform="translate(315.78048780487813,15.579999999999984)"><tspan x="0" y="0" dy="0.91em">87%</tspan></text><text class="data-label" font-size="18" fill="rgb(236, 247, 248)" fill-opacity="1" visibility="visible" text-anchor="middle" transform="translate(403.21951219512204,22.900000000000034)"><tspan x="0" y="0" dy="0.91em">85%</tspan></text><text class="data-label" font-size="18" fill="rgb(236, 247, 248)" fill-opacity="1" visibility="visible" text-anchor="middle" transform="translate(490.65853658536594,19.24000000000001)"><tspan x="0" y="0" dy="0.91em">86%</tspan></text><text class="data-label" font-size="18" fill="rgb(236, 247, 248)" fill-opacity="1" visibility="visible" text-anchor="middle" transform="translate(578.0975609756099,19.24000000000001)"><tspan x="0" y="0" dy="0.91em">86%</tspan></text><text class="data-label" font-size="18" fill="rgb(236, 247, 248)" fill-opacity="1" visibility="visible" text-anchor="middle" transform="translate(665.5365853658537,0.9399999999999977)"><tspan x="0" y="0" dy="0.91em">91%</tspan></text></g></g><g class="axes"><g class="axis-labels"><g class="left"><g class="label" transform="translate(-72.5,183.5)"><text style="text-anchor: middle; font-family: Arial; font-size: 16px; " fill="rgb(255, 255, 255)" dy="16" transform="rotate(270)">% Companies</text></g></g></g><g class="axis left" transform="translate(0.5,0)"><g class="tick major" style="opacity: 1; display: block; " transform="translate(0,366)"><line x2="-6.5" y2="0"></line><text x="-9.5" y="0" dy="7" style="fill: #ffffff; fill-opacity: 1; font-family: Arial; font-size: 14px; text-anchor: end; " transform="rotate(0, -9.5, 0)translate(0,0)" data-org-x="-9.5" data-org-y="0">0%</text></g><g class="tick major" style="opacity: 1; display: block; " transform="translate(0,329.4)"><line x2="-6.5" y2="0"></line><text x="-9.5" y="0" dy="7" style="fill: #ffffff; fill-opacity: 1; font-family: Arial; font-size: 14px; text-anchor: end; " transform="rotate(0, -9.5, 0)translate(0,0)" data-org-x="-9.5" data-org-y="0">10%</text></g><g class="tick major" style="opacity: 1; display: block; " transform="translate(0,292.8)"><line x2="-6.5" y2="0"></line><text x="-9.5" y="0" dy="7" style="fill: #ffffff; fill-opacity: 1; font-family: Arial; font-size: 14px; text-anchor: end; " transform="rotate(0, -9.5, 0)translate(0,0)" data-org-x="-9.5" data-org-y="0">20%</text></g><g class="tick major" style="opacity: 1; display: block; " transform="translate(0,256.2)"><line x2="-6.5" y2="0"></line><text x="-9.5" y="0" dy="7" style="fill: #ffffff; fill-opacity: 1; font-family: Arial; font-size: 14px; text-anchor: end; " transform="rotate(0, -9.5, 0)translate(0,0)" data-org-x="-9.5" data-org-y="0">30%</text></g><g class="tick major" style="opacity: 1; display: block; " transform="translate(0,219.6)"><line x2="-6.5" y2="0"></line><text x="-9.5" y="0" dy="7" style="fill: #ffffff; fill-opacity: 1; font-family: Arial; font-size: 14px; text-anchor: end; " transform="rotate(0, -9.5, 0)translate(0,0)" data-org-x="-9.5" data-org-y="0">40%</text></g><g class="tick major" style="opacity: 1; display: block; " transform="translate(0,183)"><line x2="-6.5" y2="0"></line><text x="-9.5" y="0" dy="7" style="fill: #ffffff; fill-opacity: 1; font-family: Arial; font-size: 14px; text-anchor: end; " transform="rotate(0, -9.5, 0)translate(0,0)" data-org-x="-9.5" data-org-y="0">50%</text></g><g class="tick major" style="opacity: 1; display: block; " transform="translate(0,146.4)"><line x2="-6.5" y2="0"></line><text x="-9.5" y="0" dy="7" style="fill: #ffffff; fill-opacity: 1; font-family: Arial; font-size: 14px; text-anchor: end; " transform="rotate(0, -9.5, 0)translate(0,0)" data-org-x="-9.5" data-org-y="0">60%</text></g><g class="tick major" style="opacity: 1; display: block; " transform="translate(0,109.80000000000001)"><line x2="-6.5" y2="0"></line><text x="-9.5" y="0" dy="7" style="fill: #ffffff; fill-opacity: 1; font-family: Arial; font-size: 14px; text-anchor: end; " transform="rotate(0, -9.5, 0)translate(0,0)" data-org-x="-9.5" data-org-y="0">70%</text></g><g class="tick major" style="opacity: 1; display: block; " transform="translate(0,73.19999999999999)"><line x2="-6.5" y2="0"></line><text x="-9.5" y="0" dy="7" style="fill: #ffffff; fill-opacity: 1; font-family: Arial; font-size: 14px; text-anchor: end; " transform="rotate(0, -9.5, 0)translate(0,0)" data-org-x="-9.5" data-org-y="0">80%</text></g><g class="tick major" style="opacity: 1; display: block; " transform="translate(0,36.599999999999966)"><line x2="-6.5" y2="0"></line><text x="-9.5" y="0" dy="7" style="fill: #ffffff; fill-opacity: 1; font-family: Arial; font-size: 14px; text-anchor: end; " transform="rotate(0, -9.5, 0)translate(0,0)" data-org-x="-9.5" data-org-y="0">90%</text></g><g class="tick major" style="opacity: 1; display: block; " transform="translate(0,0)"><line x2="-6.5" y2="0"></line><text x="-9.5" y="0" dy="7" style="fill: #ffffff; fill-opacity: 1; font-family: Arial; font-size: 14px; text-anchor: end; " transform="rotate(0, -9.5, 0)translate(0,0)" data-org-x="-9.5" data-org-y="0">100%</text></g><path class="domain" d="M0,0H0V366H0" stroke-width="1" fill="none" stroke="rgb(255, 255, 255)" stroke-opacity="1"></path></g><g class="axis bottom" transform="translate(0,366.5)"><g class="tick major" style="opacity: 1; display: block; " transform="translate(53.46341463414635,0)"><line y2="6.5" x2="0"></line><text y="9.5" x="0" dy="7" style="fill: #ffffff; fill-opacity: 1; font-family: Arial; font-size: 14px; text-anchor: middle; " transform="rotate(0, 0, 9.5)translate(0,0)" data-org-x="0" data-org-y="9.5">2016</text></g><g class="tick major" style="opacity: 1; display: block; " transform="translate(140.90243902439028,0)"><line y2="6.5" x2="0"></line><text y="9.5" x="0" dy="7" style="fill: #ffffff; fill-opacity: 1; font-family: Arial; font-size: 14px; text-anchor: middle; " transform="rotate(0, 0, 9.5)translate(0,0)" data-org-x="0" data-org-y="9.5">2017</text></g><g class="tick major" style="opacity: 1; display: block; " transform="translate(228.34146341463418,0)"><line y2="6.5" x2="0"></line><text y="9.5" x="0" dy="7" style="fill: #ffffff; fill-opacity: 1; font-family: Arial; font-size: 14px; text-anchor: middle; " transform="rotate(0, 0, 9.5)translate(0,0)" data-org-x="0" data-org-y="9.5">2018</text></g><g class="tick major" style="opacity: 1; display: block; " transform="translate(315.78048780487813,0)"><line y2="6.5" x2="0"></line><text y="9.5" x="0" dy="7" style="fill: #ffffff; fill-opacity: 1; font-family: Arial; font-size: 14px; text-anchor: middle; " transform="rotate(0, 0, 9.5)translate(0,0)" data-org-x="0" data-org-y="9.5">2019</text></g><g class="tick major" style="opacity: 1; display: block; " transform="translate(403.21951219512204,0)"><line y2="6.5" x2="0"></line><text y="9.5" x="0" dy="7" style="fill: #ffffff; fill-opacity: 1; font-family: Arial; font-size: 14px; text-anchor: middle; " transform="rotate(0, 0, 9.5)translate(0,0)" data-org-x="0" data-org-y="9.5">2020</text></g><g class="tick major" style="opacity: 1; display: block; " transform="translate(490.65853658536594,0)"><line y2="6.5" x2="0"></line><text y="9.5" x="0" dy="7" style="fill: #ffffff; fill-opacity: 1; font-family: Arial; font-size: 14px; text-anchor: middle; " transform="rotate(0, 0, 9.5)translate(0,0)" data-org-x="0" data-org-y="9.5">2021</text></g><g class="tick major" style="opacity: 1; display: block; " transform="translate(578.0975609756099,0)"><line y2="6.5" x2="0"></line><text y="9.5" x="0" dy="7" style="fill: #ffffff; fill-opacity: 1; font-family: Arial; font-size: 14px; text-anchor: middle; " transform="rotate(0, 0, 9.5)translate(0,0)" data-org-x="0" data-org-y="9.5">2022</text></g><g class="tick major" style="opacity: 1; display: block; " transform="translate(665.5365853658537,0)"><line y2="6.5" x2="0"></line><text y="9.5" x="0" dy="7" style="fill: #ffffff; fill-opacity: 1; font-family: Arial; font-size: 14px; text-anchor: middle; " transform="rotate(0, 0, 9.5)translate(0,0)" data-org-x="0" data-org-y="9.5">2023</text></g><path class="domain" d="M1,0V0H718V0" stroke-width="1" fill="none" stroke="rgb(255, 255, 255)" stroke-opacity="1"></path><path class="filler" d="M0,0V0H1V0" stroke-width="1" fill="none" stroke="rgb(255, 255, 255)" stroke-opacity="1"></path></g></g></g><g class="label" transform="translate(5,5)"><text style="text-anchor: start; font-family: Arial; font-size: 22px; " fill="rgb(255, 255, 255)" dy="22" transform="rotate(0)">Video use over time</text></g></g></svg>